<?xml version="1.0" encoding="UTF-8" standalone="no"?>
<!-- Generator: Adobe Illustrator 19.0.0, SVG Export Plug-In . SVG Version: 6.00 Build 0)  -->

<svg
   xmlns:dc="http://purl.org/dc/elements/1.1/"
   xmlns:cc="http://creativecommons.org/ns#"
   xmlns:rdf="http://www.w3.org/1999/02/22-rdf-syntax-ns#"
   xmlns:svg="http://www.w3.org/2000/svg"
   xmlns="http://www.w3.org/2000/svg"
   xmlns:sodipodi="http://sodipodi.sourceforge.net/DTD/sodipodi-0.dtd"
   xmlns:inkscape="http://www.inkscape.org/namespaces/inkscape"
   version="1.1"
   id="Layer_1"
   x="0px"
   y="0px"
   viewBox="0 0 505 505"
   style="enable-background:new 0 0 505 505;"
   xml:space="preserve"
   sodipodi:docname="watch.svg"
   inkscape:version="0.92.4 (5da689c313, 2019-01-14)"><metadata
   id="metadata105"><rdf:RDF><cc:Work
       rdf:about=""><dc:format>image/svg+xml</dc:format><dc:type
         rdf:resource="http://purl.org/dc/dcmitype/StillImage" /><dc:title /></cc:Work></rdf:RDF></metadata><defs
   id="defs103" /><sodipodi:namedview
   pagecolor="#ffffff"
   bordercolor="#666666"
   borderopacity="1"
   objecttolerance="10"
   gridtolerance="10"
   guidetolerance="10"
   inkscape:pageopacity="0"
   inkscape:pageshadow="2"
   inkscape:window-width="1920"
   inkscape:window-height="1019"
   id="namedview101"
   showgrid="false"
   inkscape:zoom="1.8693069"
   inkscape:cx="261.01762"
   inkscape:cy="286.22699"
   inkscape:window-x="0"
   inkscape:window-y="0"
   inkscape:window-maximized="1"
   inkscape:current-layer="Layer_1" />
<circle
   style="fill:#84DBFF;"
   cx="252.5"
   cy="252.5"
   r="252.5"
   id="circle2" />
<g
   id="g10">
	<rect
   x="391.2"
   y="225.7"
   style="fill:#2B3B4E;"
   width="45.1"
   height="53.3"
   id="rect4" />
	<polygon
   style="fill:#2B3B4E;"
   points="301.3,147.6 358.7,147.6 332.7,67.3 301.3,67.3  "
   id="polygon6" />
	<polygon
   style="fill:#2B3B4E;"
   points="201.7,147.6 144.3,147.6 170.3,67.3 201.7,67.3  "
   id="polygon8" />
</g>
<path
   style="fill:#FF7058;"
   d="M312.2,79.9H190.8l1.2-12.6L197.7,6c17.6-3.9,35.9-6,54.8-6c18.1,0,35.7,1.9,52.8,5.6l5.8,61.7  L312.2,79.9z"
   id="path12" />
<g
   id="g22">
	<polygon
   style="fill:#F1543F;"
   points="294.7,27.5 283.4,27.5 282.2,4.7 293.1,4.7  "
   id="polygon14" />
	<polygon
   style="fill:#F1543F;"
   points="297.6,67 285.5,67 284.1,41.2 295.7,41.2  "
   id="polygon16" />
	<polygon
   style="fill:#F1543F;"
   points="219.7,27.5 208.3,27.5 210,4.7 220.9,4.7  "
   id="polygon18" />
	<polygon
   style="fill:#F1543F;"
   points="217.6,67 205.5,67 207.3,41.2 218.9,41.2  "
   id="polygon20" />
</g>
<g
   id="g28">
	<polygon
   style="fill:#2B3B4E;"
   points="301.3,357.4 358.7,357.4 332.7,437.7 301.3,437.7  "
   id="polygon24" />
	<polygon
   style="fill:#2B3B4E;"
   points="201.7,357.4 144.3,357.4 170.3,437.7 201.7,437.7  "
   id="polygon26" />
</g>
<path
   style="fill:#FF7058;"
   d="M312.2,425.1l-1.2,12.6l-5.8,61.8c-17,3.6-34.7,5.5-52.8,5.5c-18.8,0-37.1-2.1-54.8-6l-5.7-61.4  l-1.2-12.6h121.5V425.1z"
   id="path30" />
<g
   id="g40">
	<polygon
   style="fill:#F1543F;"
   points="294.7,477.5 283.4,477.5 282.2,500.2 293.1,500.2  "
   id="polygon32" />
	<polygon
   style="fill:#F1543F;"
   points="297.6,438 285.5,438 284.1,463.8 295.7,463.8  "
   id="polygon34" />
	<polygon
   style="fill:#F1543F;"
   points="219.7,477.5 208.3,477.5 210,500.2 220.9,500.2  "
   id="polygon36" />
	<polygon
   style="fill:#F1543F;"
   points="217.6,438 205.5,438 207.3,463.8 218.9,463.8  "
   id="polygon38" />
</g>
<circle
   style="fill:#324A5E;"
   cx="251.5"
   cy="252.5"
   r="162.2"
   id="circle42" />
<circle
   style="fill:#FFFFFF;"
   cx="251.5"
   cy="252.5"
   r="129.4"
   id="circle44" />
<g
   id="g62">
	<rect
   x="244"
   y="139.6"
   style="fill:#ACB3BA;"
   width="15.1"
   height="19.8"
   id="rect46" />
	<rect
   x="244"
   y="345.7"
   style="fill:#ACB3BA;"
   width="15.1"
   height="19.8"
   id="rect48" />
	<rect
   x="344.7"
   y="244.9"
   style="fill:#ACB3BA;"
   width="19.8"
   height="15.1"
   id="rect50" />
	<rect
   x="138.6"
   y="245"
   style="fill:#ACB3BA;"
   width="19.8"
   height="15.1"
   id="rect52" />
	
		<rect
   x="314.467"
   y="172.073"
   transform="matrix(0.7071 -0.7071 0.7071 0.7071 -32.0077 281.972)"
   style="fill:#ACB3BA;"
   width="19.8"
   height="15.1"
   id="rect54" />
	
		<rect
   x="168.737"
   y="317.834"
   transform="matrix(0.7071 -0.7071 0.7071 0.7071 -177.7596 221.6178)"
   style="fill:#ACB3BA;"
   width="19.8"
   height="15.1"
   id="rect56" />
	
		<rect
   x="314.502"
   y="317.802"
   transform="matrix(0.7071 0.7071 -0.7071 0.7071 325.0737 -134.0933)"
   style="fill:#ACB3BA;"
   width="19.8"
   height="15.1"
   id="rect58" />
	
		<rect
   x="168.742"
   y="172.051"
   transform="matrix(0.7071 0.7071 -0.7071 0.7071 179.3201 -73.7149)"
   style="fill:#ACB3BA;"
   width="19.8"
   height="15.1"
   id="rect60" />
</g>

<path
   style="fill:#f1543f"
   d="m 251.49036,164.00959 c -1.97989,-0.009 -3.61334,1.61056 -3.622,3.59043 l -0.28792,81.9532 c -0.009,1.97988 1.61054,3.61333 3.59042,3.62199 0.98993,0.004 1.84032,-0.41621 2.47949,-1.04981 0.63917,-0.63361 1.06715,-1.48027 1.07148,-2.47022 l 0.28792,-81.95319 c 0.01,-2.12131 -1.53952,-3.68373 -3.51939,-3.6924 z"
   id="path66"
   inkscape:connector-curvature="0" />
<circle
   style="fill:#324A5E;"
   cx="251.5"
   cy="252.5"
   r="18.6"
   id="circle68" />
<g
   id="g70">
</g>
<g
   id="g72">
</g>
<g
   id="g74">
</g>
<g
   id="g76">
</g>
<g
   id="g78">
</g>
<g
   id="g80">
</g>
<g
   id="g82">
</g>
<g
   id="g84">
</g>
<g
   id="g86">
</g>
<g
   id="g88">
</g>
<g
   id="g90">
</g>
<g
   id="g92">
</g>
<g
   id="g94">
</g>
<g
   id="g96">
</g>
<g
   id="g98">
</g>
<path
   style="fill:#84dbff;fill-opacity:1;stroke-width:0.87835509"
   d="m 251.81024,176.82481 c -1.74746,-0.13646 -3.19473,1.17272 -3.20918,2.90229 l -0.53537,71.59679 c -0.0147,1.72955 1.40908,3.26214 3.15654,3.39829 0.87372,0.0678 1.62574,-0.24419 2.19204,-0.75636 0.56638,-0.51213 0.94697,-1.22424 0.9542,-2.08903 L 254.90385,180.28 c 0.0161,-1.85307 -1.34617,-3.31904 -3.09361,-3.45519 z"
   id="path66-3"
   inkscape:connector-curvature="0" /></svg>